<svg width="217" height="70" viewBox="0 0 217 70" fill="none" xmlns="http://www.w3.org/2000/svg">
<path d="M10.12 48.06V49.54H6.32V62H4.5V49.54H0.68V48.06H10.12ZM17.8003 50.84C18.627 50.84 19.3736 51.02 20.0403 51.38C20.707 51.7267 21.227 52.2533 21.6003 52.96C21.987 53.6667 22.1803 54.5267 22.1803 55.54V62H20.3803V55.8C20.3803 54.7067 20.107 53.8733 19.5603 53.3C19.0136 52.7133 18.267 52.42 17.3203 52.42C16.3603 52.42 15.5936 52.72 15.0203 53.32C14.4603 53.92 14.1803 54.7933 14.1803 55.94V62H12.3603V47.2H14.1803V52.6C14.5403 52.04 15.0336 51.6067 15.6603 51.3C16.3003 50.9933 17.0136 50.84 17.8003 50.84ZM35.1533 56.1C35.1533 56.4467 35.1333 56.8133 35.0933 57.2H26.3333C26.3999 58.28 26.7666 59.1267 27.4333 59.74C28.1133 60.34 28.9333 60.64 29.8933 60.64C30.6799 60.64 31.3333 60.46 31.8533 60.1C32.3866 59.7267 32.7599 59.2333 32.9733 58.62H34.9333C34.6399 59.6733 34.0533 60.5333 33.1733 61.2C32.2933 61.8533 31.1999 62.18 29.8933 62.18C28.8533 62.18 27.9199 61.9467 27.0933 61.48C26.2799 61.0133 25.6399 60.3533 25.1733 59.5C24.7066 58.6333 24.4733 57.6333 24.4733 56.5C24.4733 55.3667 24.6999 54.3733 25.1533 53.52C25.6066 52.6667 26.2399 52.0133 27.0533 51.56C27.8799 51.0933 28.8266 50.86 29.8933 50.86C30.9333 50.86 31.8533 51.0867 32.6533 51.54C33.4533 51.9933 34.0666 52.62 34.4933 53.42C34.9333 54.2067 35.1533 55.1 35.1533 56.1ZM33.2733 55.72C33.2733 55.0267 33.1199 54.4333 32.8133 53.94C32.5066 53.4333 32.0866 53.0533 31.5533 52.8C31.0333 52.5333 30.4533 52.4 29.8133 52.4C28.8933 52.4 28.1066 52.6933 27.4533 53.28C26.8133 53.8667 26.4466 54.68 26.3533 55.72H33.2733ZM52.2077 52.14C52.2077 53.3 51.8077 54.2667 51.0077 55.04C50.221 55.8 49.0143 56.18 47.3877 56.18H44.7077V62H42.8877V48.06H47.3877C48.961 48.06 50.1543 48.44 50.9677 49.2C51.7943 49.96 52.2077 50.94 52.2077 52.14ZM47.3877 54.68C48.401 54.68 49.1477 54.46 49.6277 54.02C50.1077 53.58 50.3477 52.9533 50.3477 52.14C50.3477 50.42 49.361 49.56 47.3877 49.56H44.7077V54.68H47.3877ZM64.1897 51.04V62H62.3697V60.38C62.023 60.94 61.5364 61.38 60.9097 61.7C60.2964 62.0067 59.6164 62.16 58.8697 62.16C58.0164 62.16 57.2497 61.9867 56.5697 61.64C55.8897 61.28 55.3497 60.7467 54.9497 60.04C54.563 59.3333 54.3697 58.4733 54.3697 57.46V51.04H56.1697V57.22C56.1697 58.3 56.443 59.1333 56.9897 59.72C57.5364 60.2933 58.283 60.58 59.2297 60.58C60.203 60.58 60.9697 60.28 61.5297 59.68C62.0897 59.08 62.3697 58.2067 62.3697 57.06V51.04H64.1897ZM69.0827 52.82C69.4027 52.1933 69.856 51.7067 70.4427 51.36C71.0427 51.0133 71.7693 50.84 72.6227 50.84V52.72H72.1427C70.1027 52.72 69.0827 53.8267 69.0827 56.04V62H67.2627V51.04H69.0827V52.82ZM76.5436 53.06C76.9036 52.4333 77.4369 51.9133 78.1436 51.5C78.8636 51.0733 79.6969 50.86 80.6436 50.86C81.6169 50.86 82.4969 51.0933 83.2836 51.56C84.0836 52.0267 84.7103 52.6867 85.1636 53.54C85.6169 54.38 85.8436 55.36 85.8436 56.48C85.8436 57.5867 85.6169 58.5733 85.1636 59.44C84.7103 60.3067 84.0836 60.98 83.2836 61.46C82.4969 61.94 81.6169 62.18 80.6436 62.18C79.7103 62.18 78.8836 61.9733 78.1636 61.56C77.4569 61.1333 76.9169 60.6067 76.5436 59.98V67.2H74.7236V51.04H76.5436V53.06ZM83.9836 56.48C83.9836 55.6533 83.8169 54.9333 83.4836 54.32C83.1503 53.7067 82.6969 53.24 82.1236 52.92C81.5636 52.6 80.9436 52.44 80.2636 52.44C79.5969 52.44 78.9769 52.6067 78.4036 52.94C77.8436 53.26 77.3903 53.7333 77.0436 54.36C76.7103 54.9733 76.5436 55.6867 76.5436 56.5C76.5436 57.3267 76.7103 58.0533 77.0436 58.68C77.3903 59.2933 77.8436 59.7667 78.4036 60.1C78.9769 60.42 79.5969 60.58 80.2636 60.58C80.9436 60.58 81.5636 60.42 82.1236 60.1C82.6969 59.7667 83.1503 59.2933 83.4836 58.68C83.8169 58.0533 83.9836 57.32 83.9836 56.48ZM90.0592 47.2V62H88.2392V47.2H90.0592ZM103.161 56.1C103.161 56.4467 103.141 56.8133 103.101 57.2H94.3411C94.4078 58.28 94.7744 59.1267 95.4411 59.74C96.1211 60.34 96.9411 60.64 97.9011 60.64C98.6878 60.64 99.3411 60.46 99.8611 60.1C100.394 59.7267 100.768 59.2333 100.981 58.62H102.941C102.648 59.6733 102.061 60.5333 101.181 61.2C100.301 61.8533 99.2078 62.18 97.9011 62.18C96.8611 62.18 95.9278 61.9467 95.1011 61.48C94.2878 61.0133 93.6478 60.3533 93.1811 59.5C92.7144 58.6333 92.4811 57.6333 92.4811 56.5C92.4811 55.3667 92.7078 54.3733 93.1611 53.52C93.6144 52.6667 94.2478 52.0133 95.0611 51.56C95.8878 51.0933 96.8344 50.86 97.9011 50.86C98.9411 50.86 99.8611 51.0867 100.661 51.54C101.461 51.9933 102.074 52.62 102.501 53.42C102.941 54.2067 103.161 55.1 103.161 56.1ZM101.281 55.72C101.281 55.0267 101.128 54.4333 100.821 53.94C100.514 53.4333 100.094 53.0533 99.5611 52.8C99.0411 52.5333 98.4611 52.4 97.8211 52.4C96.9011 52.4 96.1144 52.6933 95.4611 53.28C94.8211 53.8667 94.4544 54.68 94.3611 55.72H101.281ZM125.035 48.16V62H123.215V51.68L118.615 62H117.335L112.715 51.66V62H110.895V48.16H112.855L117.975 59.6L123.095 48.16H125.035ZM132.902 62.18C131.875 62.18 130.942 61.9467 130.102 61.48C129.275 61.0133 128.622 60.3533 128.142 59.5C127.675 58.6333 127.442 57.6333 127.442 56.5C127.442 55.38 127.682 54.3933 128.162 53.54C128.655 52.6733 129.322 52.0133 130.162 51.56C131.002 51.0933 131.942 50.86 132.982 50.86C134.022 50.86 134.962 51.0933 135.802 51.56C136.642 52.0133 137.302 52.6667 137.782 53.52C138.275 54.3733 138.522 55.3667 138.522 56.5C138.522 57.6333 138.269 58.6333 137.762 59.5C137.269 60.3533 136.595 61.0133 135.742 61.48C134.889 61.9467 133.942 62.18 132.902 62.18ZM132.902 60.58C133.555 60.58 134.169 60.4267 134.742 60.12C135.315 59.8133 135.775 59.3533 136.122 58.74C136.482 58.1267 136.662 57.38 136.662 56.5C136.662 55.62 136.489 54.8733 136.142 54.26C135.795 53.6467 135.342 53.1933 134.782 52.9C134.222 52.5933 133.615 52.44 132.962 52.44C132.295 52.44 131.682 52.5933 131.122 52.9C130.575 53.1933 130.135 53.6467 129.802 54.26C129.469 54.8733 129.302 55.62 129.302 56.5C129.302 57.3933 129.462 58.1467 129.782 58.76C130.115 59.3733 130.555 59.8333 131.102 60.14C131.649 60.4333 132.249 60.58 132.902 60.58ZM144.995 60.32L148.395 51.04H150.335L146.035 62H143.915L139.615 51.04H141.575L144.995 60.32ZM162.126 56.1C162.126 56.4467 162.106 56.8133 162.066 57.2H153.306C153.373 58.28 153.739 59.1267 154.406 59.74C155.086 60.34 155.906 60.64 156.866 60.64C157.653 60.64 158.306 60.46 158.826 60.1C159.359 59.7267 159.733 59.2333 159.946 58.62H161.906C161.613 59.6733 161.026 60.5333 160.146 61.2C159.266 61.8533 158.173 62.18 156.866 62.18C155.826 62.18 154.893 61.9467 154.066 61.48C153.253 61.0133 152.613 60.3533 152.146 59.5C151.679 58.6333 151.446 57.6333 151.446 56.5C151.446 55.3667 151.673 54.3733 152.126 53.52C152.579 52.6667 153.213 52.0133 154.026 51.56C154.853 51.0933 155.799 50.86 156.866 50.86C157.906 50.86 158.826 51.0867 159.626 51.54C160.426 51.9933 161.039 52.62 161.466 53.42C161.906 54.2067 162.126 55.1 162.126 56.1ZM160.246 55.72C160.246 55.0267 160.093 54.4333 159.786 53.94C159.479 53.4333 159.059 53.0533 158.526 52.8C158.006 52.5333 157.426 52.4 156.786 52.4C155.866 52.4 155.079 52.6933 154.426 53.28C153.786 53.8667 153.419 54.68 153.326 55.72H160.246ZM177.708 50.84C178.562 50.84 179.322 51.02 179.988 51.38C180.655 51.7267 181.182 52.2533 181.568 52.96C181.955 53.6667 182.148 54.5267 182.148 55.54V62H180.348V55.8C180.348 54.7067 180.075 53.8733 179.528 53.3C178.995 52.7133 178.268 52.42 177.348 52.42C176.402 52.42 175.648 52.7267 175.088 53.34C174.528 53.94 174.248 54.8133 174.248 55.96V62H172.448V55.8C172.448 54.7067 172.175 53.8733 171.628 53.3C171.095 52.7133 170.368 52.42 169.448 52.42C168.502 52.42 167.748 52.7267 167.188 53.34C166.628 53.94 166.348 54.8133 166.348 55.96V62H164.528V51.04H166.348V52.62C166.708 52.0467 167.188 51.6067 167.788 51.3C168.402 50.9933 169.075 50.84 169.808 50.84C170.728 50.84 171.542 51.0467 172.248 51.46C172.955 51.8733 173.482 52.48 173.828 53.28C174.135 52.5067 174.642 51.9067 175.348 51.48C176.055 51.0533 176.842 50.84 177.708 50.84ZM195.134 56.1C195.134 56.4467 195.114 56.8133 195.074 57.2H186.314C186.38 58.28 186.747 59.1267 187.414 59.74C188.094 60.34 188.914 60.64 189.874 60.64C190.66 60.64 191.314 60.46 191.834 60.1C192.367 59.7267 192.74 59.2333 192.954 58.62H194.914C194.62 59.6733 194.034 60.5333 193.154 61.2C192.274 61.8533 191.18 62.18 189.874 62.18C188.834 62.18 187.9 61.9467 187.074 61.48C186.26 61.0133 185.62 60.3533 185.154 59.5C184.687 58.6333 184.454 57.6333 184.454 56.5C184.454 55.3667 184.68 54.3733 185.134 53.52C185.587 52.6667 186.22 52.0133 187.034 51.56C187.86 51.0933 188.807 50.86 189.874 50.86C190.914 50.86 191.834 51.0867 192.634 51.54C193.434 51.9933 194.047 52.62 194.474 53.42C194.914 54.2067 195.134 55.1 195.134 56.1ZM193.254 55.72C193.254 55.0267 193.1 54.4333 192.794 53.94C192.487 53.4333 192.067 53.0533 191.534 52.8C191.014 52.5333 190.434 52.4 189.794 52.4C188.874 52.4 188.087 52.6933 187.434 53.28C186.794 53.8667 186.427 54.68 186.334 55.72H193.254ZM202.876 50.84C204.209 50.84 205.289 51.2467 206.116 52.06C206.943 52.86 207.356 54.02 207.356 55.54V62H205.556V55.8C205.556 54.7067 205.283 53.8733 204.736 53.3C204.189 52.7133 203.443 52.42 202.496 52.42C201.536 52.42 200.769 52.72 200.196 53.32C199.636 53.92 199.356 54.7933 199.356 55.94V62H197.536V51.04H199.356V52.6C199.716 52.04 200.203 51.6067 200.816 51.3C201.443 50.9933 202.129 50.84 202.876 50.84ZM212.549 52.54V59C212.549 59.5333 212.662 59.9133 212.889 60.14C213.116 60.3533 213.509 60.46 214.069 60.46H215.409V62H213.769C212.756 62 211.996 61.7667 211.489 61.3C210.982 60.8333 210.729 60.0667 210.729 59V52.54H209.309V51.04H210.729V48.28H212.549V51.04H215.409V52.54H212.549Z" fill="black"/>
<path d="M116.22 10.2562C116.756 9.62246 117.281 9.04475 117.758 8.42796C119.465 6.21226 120.667 6.16808 122.463 8.3464C124.365 10.6522 126.253 12.9715 128.087 15.3333C129.082 16.6128 130.257 17.3145 131.913 17.1922C133.602 17.0665 134.999 17.7682 136.128 18.9814C137.864 20.8471 139.516 22.796 141.29 24.6226C142.357 25.7203 143.538 26.7228 144.762 27.6403C146.068 28.6207 146.927 28.5035 148.186 27.4364C150.029 25.8755 151.839 25.9525 153.617 27.6675C155.959 29.9223 158.314 32.1669 160.658 34.4183C160.869 34.6205 161.049 34.8549 161.546 35.4191C126.124 35.6145 91.063 35.8065 56 36.0002C57.9251 34.092 59.5562 32.0785 61.5641 30.568C65.171 27.8544 68.9671 25.3838 72.7717 22.9523C73.632 22.4035 74.8557 22.2234 75.9104 22.2268C80.0751 22.2404 83.1664 20.6092 85.0729 16.7878C85.8961 15.1362 86.6752 15.0394 88.2099 16.1455C89.3356 16.956 90.2703 16.8677 90.7418 15.5576C91.8202 12.5569 94.2709 11.0871 96.7403 9.546C97.5398 9.04645 98.3122 8.40247 98.8885 7.66164C100.668 5.37117 102.375 3.02294 104.054 0.654315C104.691 -0.244539 105.298 -0.190166 105.744 0.650917C107.133 3.27272 109.366 5.02625 111.661 6.74069C113.135 7.84175 114.579 8.98358 116.225 10.2545L116.22 10.2562ZM94.1797 29.1577L94.2862 29.7558C94.8676 29.8458 95.4473 29.9631 96.0321 30.0191C97.2068 30.133 98.4068 30.0973 99.5545 30.3301C102.23 30.8687 103.444 30.4184 105.095 28.1908C106.188 26.7177 107.37 25.3091 108.675 23.6677C109.248 25.394 109.729 26.8485 110.211 28.303C110.711 26.8468 110.831 25.4127 111.127 24.0177C111.548 22.0297 112.466 21.5556 114.383 22.2319C115.082 22.4783 115.746 22.8317 116.429 23.1291C116.96 23.3601 117.498 23.5793 118.229 23.8886C117.94 21.8105 117.687 19.9941 117.43 18.1386C118.238 17.9228 118.939 17.7342 119.703 17.5303C119.042 14.4158 122.315 11.862 120.547 8.30732C119.249 9.7465 118.015 10.9614 116.965 12.3207C115.992 13.5832 115.055 14.7097 113.284 14.7471C112.902 14.7556 112.457 15.177 112.168 15.5168C111.222 16.6315 110.184 17.4692 108.768 18.0622C107.375 18.645 106.124 19.7647 105.058 20.8862C104.138 21.8513 103.51 23.1189 102.854 24.3117C101.731 26.3558 100.102 27.4755 97.7696 27.8153C96.5341 27.9954 95.373 28.6938 94.1797 29.1594V29.1577ZM126.851 32.3776C126.511 30.8738 126.283 29.4278 125.84 28.0515C125.511 27.0286 125.034 25.9921 124.383 25.1511C123.474 23.9769 122.355 22.9625 121.285 21.9227C121.099 21.7425 120.709 21.7748 120.413 21.7103C120.408 21.9838 120.312 22.2999 120.413 22.5259C120.947 23.7323 121.591 24.8928 122.064 26.1213C122.255 26.6157 122.257 27.2954 122.081 27.7966C121.696 28.896 121.14 29.9342 120.592 31.1355C122.85 31.5824 124.939 31.997 126.854 32.3759L126.851 32.3776ZM152.048 30.1704C151.999 30.0378 151.95 29.907 151.901 29.7745C149.087 30.8432 146.275 31.9103 143.461 32.9791C143.489 33.1031 143.52 33.2288 143.548 33.3529H150.421C151.024 32.1754 151.536 31.1729 152.048 30.1721V30.1704Z" fill="#84298E"/>
<path d="M94.1796 29.1578C95.3745 28.6922 96.534 27.9939 97.7695 27.8138C100.104 27.4739 101.731 26.3542 102.854 24.3101C103.508 23.119 104.138 21.8514 105.058 20.8846C106.124 19.7632 107.375 18.6434 108.768 18.0606C110.186 17.4676 111.222 16.6299 112.168 15.5153C112.457 15.1754 112.902 14.7541 113.284 14.7456C115.055 14.7082 115.99 13.5816 116.965 12.3192C118.015 10.9598 119.248 9.74494 120.547 8.30575C122.314 11.8604 119.042 14.4142 119.703 17.5288C118.939 17.7327 118.236 17.9213 117.43 18.1371C117.688 19.9926 117.94 21.8073 118.229 23.887C117.496 23.5795 116.96 23.3586 116.429 23.1275C115.746 22.8301 115.082 22.4784 114.382 22.2303C112.466 21.5541 111.548 22.0264 111.127 24.0162C110.831 25.4112 110.711 26.8453 110.211 28.3014C109.729 26.847 109.246 25.3925 108.675 23.6661C107.37 25.3092 106.188 26.7161 105.095 28.1893C103.443 30.4169 102.228 30.8672 99.5544 30.3285C98.405 30.0974 97.205 30.1314 96.032 30.0176C95.4472 29.9615 94.8675 29.8443 94.286 29.7542L94.1796 29.1561V29.1578Z" fill="white"/>
<path d="M126.851 32.3777C124.938 31.9988 122.849 31.5842 120.589 31.1373C121.138 29.936 121.692 28.8978 122.078 27.7985C122.254 27.2972 122.252 26.6176 122.061 26.1231C121.588 24.8946 120.944 23.7341 120.41 22.5277C120.31 22.3 120.405 21.9857 120.41 21.7121C120.705 21.7784 121.096 21.7444 121.282 21.9245C122.352 22.9644 123.471 23.9788 124.38 25.1529C125.032 25.994 125.507 27.0305 125.837 28.0533C126.28 29.428 126.508 30.8739 126.848 32.3794L126.851 32.3777Z" fill="white"/>
<path d="M152.048 30.1705C151.536 31.173 151.022 32.1738 150.421 33.3513H143.548C143.52 33.2273 143.489 33.1015 143.46 32.9775C146.275 31.9087 149.087 30.8417 151.901 29.7729C151.95 29.9054 151.999 30.0363 152.048 30.1688V30.1705Z" fill="white"/>
</svg>
