<svg width="48" height="48" viewBox="0 0 48 48" fill="none" xmlns="http://www.w3.org/2000/svg">
<path d="M39 7.5H9C7.80653 7.5 6.66193 7.97411 5.81802 8.81802C4.97411 9.66193 4.5 10.8065 4.5 12V33C4.5 34.1935 4.97411 35.3381 5.81802 36.182C6.66193 37.0259 7.80653 37.5 9 37.5H22.5V40.5H18C17.6022 40.5 17.2206 40.658 16.9393 40.9393C16.658 41.2206 16.5 41.6022 16.5 42C16.5 42.3978 16.658 42.7794 16.9393 43.0607C17.2206 43.342 17.6022 43.5 18 43.5H30C30.3978 43.5 30.7794 43.342 31.0607 43.0607C31.342 42.7794 31.5 42.3978 31.5 42C31.5 41.6022 31.342 41.2206 31.0607 40.9393C30.7794 40.658 30.3978 40.5 30 40.5H25.5V37.5H39C40.1935 37.5 41.3381 37.0259 42.182 36.182C43.0259 35.3381 43.5 34.1935 43.5 33V12C43.5 10.8065 43.0259 9.66193 42.182 8.81802C41.3381 7.97411 40.1935 7.5 39 7.5ZM9 10.5H39C39.3978 10.5 39.7794 10.658 40.0607 10.9393C40.342 11.2206 40.5 11.6022 40.5 12V27H7.5V12C7.5 11.6022 7.65804 11.2206 7.93934 10.9393C8.22064 10.658 8.60218 10.5 9 10.5ZM39 34.5H9C8.60218 34.5 8.22064 34.342 7.93934 34.0607C7.65804 33.7794 7.5 33.3978 7.5 33V30H40.5V33C40.5 33.3978 40.342 33.7794 40.0607 34.0607C39.7794 34.342 39.3978 34.5 39 34.5Z" fill="#33AED7"/>
</svg>
