<svg width="48" height="48" viewBox="0 0 48 48" fill="none" xmlns="http://www.w3.org/2000/svg">
<path d="M29.1581 4.65206C28.9059 4.52914 28.6242 4.47945 28.3451 4.50861C28.0661 4.53778 27.8008 4.64465 27.5794 4.81706L14.4844 15.0002H6C5.20435 15.0002 4.44129 15.3163 3.87868 15.8789C3.31607 16.4415 3 17.2045 3 18.0002V30.0002C3 30.7958 3.31607 31.5589 3.87868 32.1215C4.44129 32.6841 5.20435 33.0002 6 33.0002H14.4844L27.5794 43.1833C27.801 43.3556 28.0665 43.4622 28.3456 43.4911C28.6248 43.52 28.9065 43.47 29.1587 43.3467C29.4109 43.2234 29.6234 43.0319 29.7721 42.7939C29.9208 42.5559 29.9998 42.2809 30 42.0002V6.00019C30 5.71918 29.9211 5.4438 29.7723 5.20545C29.6235 4.9671 29.4106 4.77535 29.1581 4.65206ZM6 18.0002H13.5V30.0002H6V18.0002ZM27 38.9327L16.5 30.7671V17.2333L27 9.06769V38.9327ZM37.125 19.0427C38.3315 20.4123 38.9971 22.1749 38.9971 24.0002C38.9971 25.8254 38.3315 27.588 37.125 28.9577C36.86 29.2489 36.4911 29.4242 36.098 29.4458C35.7048 29.4674 35.319 29.3336 35.0236 29.0732C34.7283 28.8128 34.5472 28.4468 34.5194 28.054C34.4916 27.6613 34.6193 27.2733 34.875 26.9739C35.5985 26.1522 35.9976 25.095 35.9976 24.0002C35.9976 22.9054 35.5985 21.8481 34.875 21.0264C34.6193 20.727 34.4916 20.3391 34.5194 19.9464C34.5472 19.5536 34.7283 19.1875 35.0236 18.9272C35.319 18.6668 35.7048 18.5329 36.098 18.5546C36.4911 18.5762 36.86 18.7515 37.125 19.0427ZM46.5 24.0002C46.5022 27.6906 45.1421 31.2519 42.6806 34.0014C42.4134 34.2906 42.0433 34.463 41.65 34.4817C41.2567 34.5003 40.8719 34.3636 40.5786 34.101C40.2853 33.8384 40.1069 33.471 40.082 33.0781C40.0572 32.6852 40.1877 32.2983 40.4456 32.0008C42.4133 29.8008 43.5011 26.9527 43.5011 24.0011C43.5011 21.0495 42.4133 18.2015 40.4456 16.0014C40.3106 15.8553 40.2059 15.6837 40.1378 15.4968C40.0697 15.3098 40.0395 15.1112 40.0489 14.9124C40.0583 14.7136 40.1072 14.5187 40.1927 14.339C40.2781 14.1593 40.3985 13.9984 40.5468 13.8657C40.695 13.733 40.8682 13.6311 41.0563 13.566C41.2443 13.5008 41.4434 13.4738 41.642 13.4864C41.8406 13.4989 42.0347 13.5509 42.213 13.6392C42.3913 13.7275 42.5503 13.8505 42.6806 14.0008C45.1428 16.7492 46.5029 20.3102 46.5 24.0002Z" fill="#EB6F3A"/>
</svg>
