<svg width="48" height="48" viewBox="0 0 48 48" fill="none" xmlns="http://www.w3.org/2000/svg">
<path d="M40.5 10.5H33V9C33 7.80653 32.5259 6.66193 31.682 5.81802C30.8381 4.97411 29.6935 4.5 28.5 4.5H19.5C18.3065 4.5 17.1619 4.97411 16.318 5.81802C15.4741 6.66193 15 7.80653 15 9V10.5H7.5C6.70435 10.5 5.94129 10.8161 5.37868 11.3787C4.81607 11.9413 4.5 12.7044 4.5 13.5V37.5C4.5 38.2957 4.81607 39.0587 5.37868 39.6213C5.94129 40.1839 6.70435 40.5 7.5 40.5H40.5C41.2957 40.5 42.0587 40.1839 42.6213 39.6213C43.1839 39.0587 43.5 38.2957 43.5 37.5V13.5C43.5 12.7044 43.1839 11.9413 42.6213 11.3787C42.0587 10.8161 41.2957 10.5 40.5 10.5ZM18 9C18 8.60218 18.158 8.22064 18.4393 7.93934C18.7206 7.65804 19.1022 7.5 19.5 7.5H28.5C28.8978 7.5 29.2794 7.65804 29.5607 7.93934C29.842 8.22064 30 8.60218 30 9V10.5H18V9ZM40.5 37.5H7.5V13.5H40.5V37.5ZM30 25.5C30 25.8978 29.842 26.2794 29.5607 26.5607C29.2794 26.842 28.8978 27 28.5 27H25.5V30C25.5 30.3978 25.342 30.7794 25.0607 31.0607C24.7794 31.342 24.3978 31.5 24 31.5C23.6022 31.5 23.2206 31.342 22.9393 31.0607C22.658 30.7794 22.5 30.3978 22.5 30V27H19.5C19.1022 27 18.7206 26.842 18.4393 26.5607C18.158 26.2794 18 25.8978 18 25.5C18 25.1022 18.158 24.7206 18.4393 24.4393C18.7206 24.158 19.1022 24 19.5 24H22.5V21C22.5 20.6022 22.658 20.2206 22.9393 19.9393C23.2206 19.658 23.6022 19.5 24 19.5C24.3978 19.5 24.7794 19.658 25.0607 19.9393C25.342 20.2206 25.5 20.6022 25.5 21V24H28.5C28.8978 24 29.2794 24.158 29.5607 24.4393C29.842 24.7206 30 25.1022 30 25.5Z" fill="#46CBFF"/>
</svg>
