<svg width="48" height="48" viewBox="0 0 48 48" fill="none" xmlns="http://www.w3.org/2000/svg">
<path d="M40.5 15H34.5V9C34.5 8.20435 34.1839 7.44129 33.6213 6.87868C33.0587 6.31607 32.2956 6 31.5 6H7.5C6.70435 6 5.94129 6.31607 5.37868 6.87868C4.81607 7.44129 4.5 8.20435 4.5 9V33C4.50088 33.2822 4.58135 33.5584 4.73217 33.797C4.88298 34.0355 5.09802 34.2266 5.35259 34.3484C5.60715 34.4702 5.89091 34.5177 6.17127 34.4855C6.45163 34.4533 6.71721 34.3426 6.9375 34.1663L13.5 28.875V34.5C13.5 35.2956 13.8161 36.0587 14.3787 36.6213C14.9413 37.1839 15.7044 37.5 16.5 37.5H34.0481L41.0625 43.1663C41.3279 43.3809 41.6586 43.4987 42 43.5C42.3978 43.5 42.7794 43.342 43.0607 43.0607C43.342 42.7794 43.5 42.3978 43.5 42V18C43.5 17.2044 43.1839 16.4413 42.6213 15.8787C42.0587 15.3161 41.2957 15 40.5 15ZM12.4781 25.8337L7.5 29.8594V9H31.5V25.5H13.4213C13.0779 25.5 12.745 25.6179 12.4781 25.8337ZM40.5 38.8594L35.5219 34.8337C35.2565 34.6191 34.9257 34.5013 34.5844 34.5H16.5V28.5H31.5C32.2956 28.5 33.0587 28.1839 33.6213 27.6213C34.1839 27.0587 34.5 26.2956 34.5 25.5V18H40.5V38.8594Z" fill="#C568AE"/>
</svg>
