<svg width="48" height="48" viewBox="0 0 48 48" fill="none" xmlns="http://www.w3.org/2000/svg">
<path d="M43.2975 39.7502C40.4419 34.8133 36.0413 31.2733 30.9056 29.5952C33.446 28.083 35.4196 25.7786 36.5235 23.0361C37.6275 20.2936 37.8006 17.2645 37.0164 14.414C36.2322 11.5636 34.5339 9.04933 32.1825 7.25745C29.831 5.46557 26.9564 4.49512 24 4.49512C21.0436 4.49512 18.169 5.46557 15.8176 7.25745C13.4661 9.04933 11.7679 11.5636 10.9837 14.414C10.1994 17.2645 10.3726 20.2936 11.4765 23.0361C12.5804 25.7786 14.5541 28.083 17.0944 29.5952C11.9588 31.2715 7.55814 34.8115 4.70252 39.7502C4.5978 39.921 4.52834 40.111 4.49824 40.309C4.46813 40.507 4.478 40.7091 4.52725 40.9033C4.5765 41.0974 4.66415 41.2797 4.785 41.4395C4.90586 41.5992 5.05749 41.7331 5.23094 41.8333C5.40439 41.9335 5.59615 41.9979 5.79491 42.0228C5.99367 42.0477 6.19539 42.0325 6.38818 41.9782C6.58098 41.9238 6.76093 41.8314 6.91743 41.7064C7.07393 41.5814 7.20381 41.4263 7.29939 41.2502C10.8319 35.1452 17.0756 31.5002 24 31.5002C30.9244 31.5002 37.1681 35.1452 40.7006 41.2502C40.7962 41.4263 40.9261 41.5814 41.0826 41.7064C41.2391 41.8314 41.4191 41.9238 41.6119 41.9782C41.8046 42.0325 42.0064 42.0477 42.2051 42.0228C42.4039 41.9979 42.5956 41.9335 42.7691 41.8333C42.9425 41.7331 43.0942 41.5992 43.215 41.4395C43.3359 41.2797 43.4235 41.0974 43.4728 40.9033C43.522 40.7091 43.5319 40.507 43.5018 40.309C43.4717 40.111 43.4022 39.921 43.2975 39.7502ZM13.5 18.0002C13.5 15.9235 14.1158 13.8934 15.2696 12.1667C16.4233 10.44 18.0632 9.0942 19.9818 8.29948C21.9005 7.50476 24.0117 7.29683 26.0485 7.70197C28.0853 8.10712 29.9562 9.10715 31.4246 10.5756C32.8931 12.044 33.8931 13.915 34.2983 15.9518C34.7034 17.9886 34.4955 20.0998 33.7008 22.0184C32.906 23.937 31.5602 25.5769 29.8335 26.7307C28.1068 27.8844 26.0767 28.5002 24 28.5002C21.2162 28.4972 18.5472 27.39 16.5787 25.4216C14.6102 23.4531 13.503 20.7841 13.5 18.0002Z" fill="#6D7BE1"/>
</svg>
