<svg width="48" height="48" viewBox="0 0 48 48" fill="none" xmlns="http://www.w3.org/2000/svg">
<path d="M5.1 23.6998C5.25759 23.818 5.43691 23.904 5.62773 23.9529C5.81855 24.0017 6.01713 24.0126 6.21213 23.9847C6.40714 23.9569 6.59474 23.8909 6.76424 23.7905C6.93374 23.6901 7.08181 23.5574 7.2 23.3998C8.10818 22.1889 9.28583 21.206 10.6397 20.5291C11.9935 19.8522 13.4864 19.4998 15 19.4998C16.5136 19.4998 18.0065 19.8522 19.3603 20.5291C20.7142 21.206 21.8918 22.1889 22.8 23.3998C23.039 23.7178 23.3945 23.9278 23.7883 23.9837C24.1821 24.0396 24.582 23.9368 24.9 23.6979C25.0134 23.6136 25.1138 23.5132 25.1981 23.3998C26.1063 22.1889 27.284 21.206 28.6378 20.5291C29.9916 19.8522 31.4845 19.4998 32.9981 19.4998C34.5118 19.4998 36.0046 19.8522 37.3585 20.5291C38.7123 21.206 39.8899 22.1889 40.7981 23.3998C41.0371 23.7181 41.3927 23.9284 41.7867 23.9844C42.1807 24.0405 42.5808 23.9378 42.8991 23.6989C43.2173 23.4599 43.4276 23.1043 43.4837 22.7103C43.5398 22.3163 43.4371 21.9162 43.1981 21.5979C41.8704 19.8179 40.0998 18.4165 38.0625 17.5329C39.1794 16.5132 39.9619 15.1796 40.3074 13.7072C40.6528 12.2347 40.545 10.6923 39.9981 9.2822C39.4513 7.87214 38.4909 6.66034 37.243 5.80586C35.9951 4.95138 34.518 4.49414 33.0056 4.49414C31.4932 4.49414 30.0162 4.95138 28.7683 5.80586C27.5204 6.66034 26.56 7.87214 26.0131 9.2822C25.4662 10.6923 25.3584 12.2347 25.7039 13.7072C26.0493 15.1796 26.8318 16.5132 27.9487 17.5329C26.4777 18.169 25.1414 19.0796 24.0112 20.216C22.8811 19.0796 21.5448 18.169 20.0737 17.5329C21.1907 16.5132 21.9732 15.1796 22.3186 13.7072C22.6641 12.2347 22.5563 10.6923 22.0094 9.2822C21.4625 7.87214 20.5021 6.66034 19.2542 5.80586C18.0063 4.95138 16.5293 4.49414 15.0169 4.49414C13.5045 4.49414 12.0274 4.95138 10.7795 5.80586C9.53162 6.66034 8.57122 7.87214 8.02435 9.2822C7.47748 10.6923 7.36969 12.2347 7.71512 13.7072C8.06056 15.1796 8.84309 16.5132 9.96 17.5329C7.91372 18.4136 6.13444 19.8159 4.8 21.5998C4.68181 21.7574 4.59582 21.9367 4.54693 22.1275C4.49804 22.3183 4.48722 22.5169 4.51508 22.7119C4.54293 22.9069 4.60893 23.0945 4.70929 23.264C4.80965 23.4335 4.94241 23.5816 5.1 23.6998ZM33 7.49979C33.89 7.49979 34.76 7.76371 35.5001 8.25818C36.2401 8.75264 36.8169 9.45545 37.1575 10.2777C37.4981 11.1 37.5872 12.0048 37.4135 12.8777C37.2399 13.7506 36.8113 14.5524 36.182 15.1818C35.5526 15.8111 34.7508 16.2397 33.8779 16.4133C33.005 16.587 32.1002 16.4978 31.2779 16.1572C30.4557 15.8167 29.7529 15.2399 29.2584 14.4999C28.7639 13.7598 28.5 12.8898 28.5 11.9998C28.5 10.8063 28.9741 9.66172 29.818 8.81781C30.6619 7.9739 31.8065 7.49979 33 7.49979ZM15 7.49979C15.89 7.49979 16.76 7.76371 17.5001 8.25818C18.2401 8.75264 18.8169 9.45545 19.1575 10.2777C19.4981 11.1 19.5872 12.0048 19.4135 12.8777C19.2399 13.7506 18.8113 14.5524 18.182 15.1818C17.5526 15.8111 16.7508 16.2397 15.8779 16.4133C15.005 16.587 14.1002 16.4978 13.2779 16.1572C12.4557 15.8167 11.7529 15.2399 11.2584 14.4999C10.7639 13.7598 10.5 12.8898 10.5 11.9998C10.5 10.8063 10.9741 9.66172 11.818 8.81781C12.6619 7.9739 13.8065 7.49979 15 7.49979ZM38.0625 37.0329C39.1794 36.0132 39.9619 34.6796 40.3074 33.2072C40.6528 31.7347 40.545 30.1923 39.9981 28.7822C39.4513 27.3721 38.4909 26.1603 37.243 25.3059C35.9951 24.4514 34.518 23.9941 33.0056 23.9941C31.4932 23.9941 30.0162 24.4514 28.7683 25.3059C27.5204 26.1603 26.56 27.3721 26.0131 28.7822C25.4662 30.1923 25.3584 31.7347 25.7039 33.2072C26.0493 34.6796 26.8318 36.0132 27.9487 37.0329C26.4777 37.669 25.1414 38.5796 24.0112 39.716C22.8811 38.5796 21.5448 37.669 20.0737 37.0329C21.1907 36.0132 21.9732 34.6796 22.3186 33.2072C22.6641 31.7347 22.5563 30.1923 22.0094 28.7822C21.4625 27.3721 20.5021 26.1603 19.2542 25.3059C18.0063 24.4514 16.5293 23.9941 15.0169 23.9941C13.5045 23.9941 12.0274 24.4514 10.7795 25.3059C9.53162 26.1603 8.57122 27.3721 8.02435 28.7822C7.47748 30.1923 7.36969 31.7347 7.71512 33.2072C8.06056 34.6796 8.84309 36.0132 9.96 37.0329C7.91372 37.9136 6.13444 39.3159 4.8 41.0998C4.68181 41.2574 4.59582 41.4367 4.54693 41.6275C4.49804 41.8183 4.48722 42.0169 4.51508 42.2119C4.54293 42.4069 4.60893 42.5945 4.70929 42.764C4.80965 42.9335 4.94241 43.0816 5.1 43.1998C5.25759 43.318 5.43691 43.404 5.62773 43.4529C5.81855 43.5017 6.01713 43.5126 6.21213 43.4847C6.40714 43.4569 6.59474 43.3909 6.76424 43.2905C6.93374 43.1901 7.08181 43.0574 7.2 42.8998C8.10818 41.6889 9.28583 40.706 10.6397 40.0291C11.9935 39.3522 13.4864 38.9998 15 38.9998C16.5136 38.9998 18.0065 39.3522 19.3603 40.0291C20.7142 40.706 21.8918 41.6889 22.8 42.8998C23.039 43.2178 23.3945 43.4278 23.7883 43.4837C24.1821 43.5396 24.582 43.4368 24.9 43.1979C25.0134 43.1136 25.1138 43.0132 25.1981 42.8998C26.1063 41.6889 27.284 40.706 28.6378 40.0291C29.9916 39.3522 31.4845 38.9998 32.9981 38.9998C34.5118 38.9998 36.0046 39.3522 37.3585 40.0291C38.7123 40.706 39.8899 41.6889 40.7981 42.8998C41.0371 43.218 41.3927 43.4284 41.7867 43.4844C42.1807 43.5405 42.5808 43.4378 42.8991 43.1989C43.2173 42.9599 43.4276 42.6043 43.4837 42.2103C43.5398 41.8163 43.4371 41.4162 43.1981 41.0979C41.8704 39.3179 40.0998 37.9165 38.0625 37.0329ZM15 26.9998C15.89 26.9998 16.76 27.2637 17.5001 27.7582C18.2401 28.2526 18.8169 28.9554 19.1575 29.7777C19.4981 30.6 19.5872 31.5048 19.4135 32.3777C19.2399 33.2506 18.8113 34.0524 18.182 34.6818C17.5526 35.3111 16.7508 35.7397 15.8779 35.9133C15.005 36.087 14.1002 35.9978 13.2779 35.6572C12.4557 35.3167 11.7529 34.7399 11.2584 33.9999C10.7639 33.2598 10.5 32.3898 10.5 31.4998C10.5 30.3063 10.9741 29.1617 11.818 28.3178C12.6619 27.4739 13.8065 26.9998 15 26.9998ZM33 26.9998C33.89 26.9998 34.76 27.2637 35.5001 27.7582C36.2401 28.2526 36.8169 28.9554 37.1575 29.7777C37.4981 30.6 37.5872 31.5048 37.4135 32.3777C37.2399 33.2506 36.8113 34.0524 36.182 34.6818C35.5526 35.3111 34.7508 35.7397 33.8779 35.9133C33.005 36.087 32.1002 35.9978 31.2779 35.6572C30.4557 35.3167 29.7529 34.7399 29.2584 33.9999C28.7639 33.2598 28.5 32.3898 28.5 31.4998C28.5 30.3063 28.9741 29.1617 29.818 28.3178C30.6619 27.4739 31.8065 26.9998 33 26.9998Z" fill="#35B69A"/>
</svg>
