<svg width="48" height="48" viewBox="0 0 48 48" fill="none" xmlns="http://www.w3.org/2000/svg">
<path d="M44.9283 35.5173C44.8698 35.3419 44.7774 35.1798 44.6562 35.0401C44.5351 34.9005 44.3877 34.7861 44.2223 34.7034C44.0569 34.6207 43.8769 34.5714 43.6925 34.5583C43.5081 34.5452 43.3229 34.5686 43.1475 34.6271L40.0823 35.6493L34.9969 25.48C34.88 25.2464 34.7005 25.05 34.4783 24.9126C34.2561 24.7753 34 24.7025 33.7388 24.7023H19.6618V20.4798H29.5157C29.8891 20.4798 30.2471 20.3315 30.5111 20.0675C30.7751 19.8036 30.9234 19.4456 30.9234 19.0723C30.9234 18.699 30.7751 18.341 30.5111 18.077C30.2471 17.8131 29.8891 17.6648 29.5157 17.6648H19.6618V16.0813C20.9888 15.7387 22.1453 14.924 22.9145 13.7899C23.6836 12.6557 24.0127 11.28 23.84 9.92064C23.6674 8.56124 23.0047 7.31149 21.9764 6.40563C20.9481 5.49977 19.6246 5 18.2541 5C16.8836 5 15.5602 5.49977 14.5319 6.40563C13.5035 7.31149 12.8409 8.56124 12.6682 9.92064C12.4955 11.28 12.8246 12.6557 13.5938 13.7899C14.363 14.924 15.5195 15.7387 16.8464 16.0813V17.9832C13.8112 18.6769 11.1377 20.4637 9.33618 23.0028C7.53467 25.5419 6.73133 28.6553 7.07949 31.7489C7.42764 34.8425 8.9029 37.6995 11.2237 39.7748C13.5445 41.85 16.5483 42.9982 19.6618 43C25.5601 43 30.8689 39.0044 32.2871 33.4993C32.3333 33.3202 32.3438 33.1338 32.318 32.9507C32.2922 32.7676 32.2305 32.5914 32.1366 32.4321C32.0426 32.2728 31.9182 32.1336 31.7704 32.0223C31.6227 31.9111 31.4544 31.8301 31.2753 31.7839C31.0963 31.7377 30.9098 31.7272 30.7267 31.753C30.5435 31.7789 30.3673 31.8405 30.208 31.9344C30.0487 32.0284 29.9094 32.1528 29.7982 32.3005C29.687 32.4483 29.6059 32.6165 29.5597 32.7955C28.4758 37.0181 24.221 40.185 19.6618 40.185C17.2955 40.1842 15.0085 39.332 13.2187 37.7841C11.429 36.2362 10.2562 34.0961 9.91451 31.7549C9.57286 29.4136 10.0853 27.0276 11.358 25.033C12.6308 23.0384 14.579 21.5683 16.8464 20.8915V26.1098C16.8464 26.4831 16.9947 26.8412 17.2587 27.1051C17.5227 27.3691 17.8808 27.5174 18.2541 27.5174H32.8678L38.1097 37.9998C38.2616 38.3027 38.5177 38.5406 38.8309 38.6698C39.1441 38.7991 39.4935 38.8111 39.8148 38.7036L44.0379 37.2961C44.3917 37.178 44.6842 36.9244 44.8511 36.5909C45.0181 36.2574 45.0458 35.8713 44.9283 35.5173ZM15.4387 10.6272C15.4387 10.0705 15.6039 9.5262 15.9132 9.06327C16.2226 8.60034 16.6623 8.23953 17.1767 8.02647C17.6912 7.81341 18.2573 7.75766 18.8034 7.86628C19.3495 7.97489 19.8512 8.243 20.2449 8.63669C20.6387 9.03038 20.9068 9.53197 21.0154 10.078C21.1241 10.6241 21.0683 11.1901 20.8552 11.7045C20.6421 12.2189 20.2813 12.6585 19.8183 12.9678C19.3553 13.2771 18.811 13.4422 18.2541 13.4422C17.5074 13.4422 16.7913 13.1457 16.2633 12.6177C15.7354 12.0898 15.4387 11.3738 15.4387 10.6272Z" fill="#4F65D6"/>
</svg>
